<svg xmlns="http://www.w3.org/2000/svg" xml:space="preserve" width="2048" height="2048" style="shape-rendering:geometricPrecision;text-rendering:geometricPrecision;image-rendering:optimizeQuality;fill-rule:evenodd;clip-rule:evenodd"><defs><clipPath id="id0"><path d="M1024 0c565.539 0 1024 458.461 1024 1024s-458.461 1024-1024 1024S0 1589.539 0 1024 458.461 0 1024 0z"/></clipPath><style>.fil1{fill:#f4511e}</style></defs><g id="Layer_x0020_1"><path d="M1024 0c565.539 0 1024 458.461 1024 1024s-458.461 1024-1024 1024S0 1589.539 0 1024 458.461 0 1024 0z" style="fill:#ff8a65"/><g style="clip-path:url(#id0)"><g id="_461751512"><path id="_4801323041" class="fil1" d="M1479.06 864.876 2614.94 2000.76l-100.99 15.21L1378.07 880.087z"/><path id="_480125992" class="fil1" d="m1556.13 805.99 1135.88 1135.88 3.49 23.13L1559.62 829.113z"/><path id="_480129544" class="fil1" d="M1520.93 886.169 2656.81 2022.05l-65.34 99L1455.58 985.164z"/><path id="_480111328" class="fil1" d="M1584 991.011 2719.88 2126.89l-46.23 6.95L1537.77 997.954z"/><path id="_480111064" class="fil1" d="M1559.62 829.113 2695.5 1965l24.38 161.89L1584 991.011z"/><path id="_480105856" class="fil1" d="m1488.02 1009.33 1135.89 1135.89-23.23 38.19L1464.8 1047.52z"/><path id="_480105832" class="fil1" d="m1464.8 1047.52 1135.88 1135.89-33.79-25.13-1135.88-1135.89z"/><path id="_480109528" class="fil1" d="m1431.01 1022.39 1135.88 1135.89-28.16 42.65-1135.88-1135.88z"/><path id="_480105568" class="fil1" d="m1402.85 1065.05 1135.88 1135.88-10.12 15.34-1135.88-1135.88z"/><path id="_480105424" class="fil1" d="m1392.73 1080.39 1135.88 1135.88-1.16 340.26-1135.88-1135.88z"/><path id="_480105328" class="fil1" d="m1391.57 1420.65 1135.88 1135.88h-420.13L971.439 1420.65z"/><path id="_480104080" class="fil1" d="M971.439 1420.65 2107.32 2556.53h-.09L971.354 1420.65z"/><path id="_480120352" class="fil1" d="M549.548 1001.18 1685.43 2137.06l-62.32 46.35L487.224 1047.52z"/><path id="_480129376" class="fil1" d="M971.354 1420.65 2107.23 2556.53h-421.8L549.548 1420.65z"/><path id="_461722520" class="fil1" d="m987.75 636.624 430.34 320.608 60.97-92.356-100.99 15.211-6.94-46.23 161.9-24.387 23.1-3.48 3.49 23.123L1584 991.011l-46.23 6.943-16.84-111.785-65.35 98.995 32.44 24.166-23.22 38.19-33.79-25.13-28.16 42.66-10.12 15.34-1.16 340.26H549.548v-419.47l-62.324 46.34L464 1009.33l500.275-372.706 11.564-9.272.173.139.173-.139z"/></g></g><path d="M1024 0c565.539 0 1024 458.461 1024 1024s-458.461 1024-1024 1024S0 1589.539 0 1024 458.461 0 1024 0z" style="fill:none"/><path style="fill:#b0b0b0" d="M971.354 1420.65H549.548v-421l421.806-311.677z"/><path style="fill:#bdbdbd" d="m992.716 672.188 400.444 280.673-1.59 467.789H971.354V687.973l.744-.55z"/><path style="fill:#455a64;fill-rule:nonzero" d="m976.012 684.151-.077-.064-488.711 363.433L464 1009.33l500.275-372.706 11.564-9.272.173.139.173-.139 11.565 9.272 500.27 372.706-23.22 38.19-488.71-363.433z"/><path style="fill:#558b2f;fill-rule:nonzero" d="m1051.8 1190.09 116.95-140.33 13.51-16.22 17.46 11.83 48.82 33.06 59.71-74.53 12.63-15.768 17.43 10.291 37.84 22.357 102.91-155.904-100.99 15.211-6.94-46.23 161.9-24.387 23.1-3.48 3.49 23.123L1584 991.011l-46.23 6.943-16.84-111.785-118.08 178.881-12.22 18.51-19.12-11.29-39.54-23.36-60.48 75.5-13.41 16.74-17.84-12.08-49.19-33.32-103.43 124.13z"/><path d="M1057.88 917.776c0 45.212-36.652 81.862-81.863 81.862-45.21 0-81.863-36.65-81.863-81.862 0-107.68 163.726-107.68 163.726 0z" style="fill:#455a64"/></g></svg>